<?xml version="1.0" encoding="utf-8"?>
<!-- Generator: Adobe Illustrator 23.0.1, SVG Export Plug-In . SVG Version: 6.00 Build 0)  -->
<svg version="1.1" id="Layer_1" xmlns="http://www.w3.org/2000/svg" xmlns:xlink="http://www.w3.org/1999/xlink" x="0px" y="0px"
	 viewBox="0 0 700 700" style="enable-background:new 0 0 700 700;" xml:space="preserve">
<path d="M534.6,102.5H261.9c-14.7,0-28.8,5.8-39.2,16.2c-10.4,10.4-16.2,24.5-16.2,39.2v297.4c0.1,14.6,6.1,28.6,16.4,38.8
	c10.4,10.3,24.4,16,39,16h23.5v87.4l71.1-53.2l71.1,53.2v-87.4h91.8v-87.9h15.1L534.6,102.5z M228.9,157.9c0-8.8,3.5-17.2,9.7-23.4
	c6.2-6.2,14.6-9.7,23.4-9.7h21.8v275h-21.8c-11.9,0.2-23.5,4.1-33,11.2L228.9,157.9z M405.3,552.7l-48.7-36.4l-48.7,36.4v-77.3h97.4
	L405.3,552.7z M497.1,487.8h-69.4V453H285.4v34.7l-23.5,0c-8.7,0-17-3.4-23.2-9.5c-6.2-6.1-9.7-14.3-9.9-23c0.1-8.7,3.7-17,9.8-23.2
	c6.2-6.2,14.5-9.7,23.2-9.8h235.2L497.1,487.8z M512.2,399.8H306.2v-275h206.1V399.8z"/>
</svg>
